# AST/ASF file generated using VICON BodyLanguage
# -----------------------------------------------
:version 1.10
:name VICON
:units
  mass 1.0
  length 0.45
  angle deg
:documentation
   .ast/.asf automatically generated from VICON data using
   VICON BodyBuilder and BodyLanguage model FoxedUp or BRILLIANT.MOD
:root
   order TX TY TZ RX RY RZ
   axis XYZ
   position 0 0 0  
   orientation 0 0 0 
:bonedata
  begin
     id 1 
     name lhipjoint
     direction 0.677091 -0.635792 0.370561 
     length 2.74323 
     axis 0 0 0  XYZ
  end
  begin
     id 2 
     name lfemur
     direction 0.34202 -0.939693 0  
     length 7.44995  
     axis 0 0 20  XYZ
    dof rx ry rz
    limits (-160.0 20.0)
           (-70.0 70.0)
           (-60.0 70.0)
  end
  begin
     id 3 
     name ltibia
     direction 0.34202 -0.939693 0   
     length 7.34467   
     axis 0 0 20   XYZ
    dof rx
    limits (-10.0 170.0)
  end
  begin
     id 4 
     name lfoot
     direction 0.101953 -0.280114 0.954537   
     length 1.72105   
     axis -90 7.62852e-016 20   XYZ
    dof rx rz
    limits (-45.0 90.0)
           (-70.0 20.0)
  end
  begin
     id 5 
     name ltoes
     direction 1.53537e-011 -4.21915e-011 1   
     length 0.865872   
     axis -90 7.62852e-016 20   XYZ
    dof rx
    limits (-90.0 20.0)
  end
  begin
     id 6 
     name rhipjoint
     direction -0.695735 -0.620586 0.361699   
     length 2.81045  
     axis 0 0 0  XYZ 
  end
  begin
     id 7 
     name rfemur
     direction -0.34202 -0.939693 0   
     length 7.29387   
     axis 0 0 -20   XYZ
    dof rx ry rz
    limits (-160.0 20.0)
           (-70.0 70.0)
           (-70.0 60.0)
  end
  begin
     id 8 
     name rtibia
     direction -0.34202 -0.939693 0   
     length 7.44935   
     axis 0 0 -20   XYZ
    dof rx
    limits (-10.0 170.0)
 end
 begin
     id 9 
     name rfoot
     direction -0.104163 -0.286184 0.952496   
     length 1.77731  
     axis -90 -7.62852e-016 -20   XYZ
    dof rx rz
    limits (-45.0 90.0)
           (-20.0 70.0)
  end
  begin
     id 10 
     name rtoes
     direction -1.5355e-011 -4.21888e-011 1   
     length 0.892424   
     axis -90 -7.62852e-016 -20   XYZ
    dof rx
    limits (-90.0 20.0)
  end
  begin
     id 11 
     name lowerback
     direction 0.0100202 0.997226 -0.0737589   
     length 2.16892   
     axis 0 0 0   XYZ
    dof rx ry rz
    limits (-20.0 45.0)
           (-30.0 30.0)
           (-30.0 30.0)
  end
  begin
     id 12 
     name upperback
     direction 0.00432398 0.999988 -0.00215019   
     length 2.17326   
     axis 0 0 0   XYZ
    dof rx ry rz
    limits (-20.0 45.0)
           (-30.0 30.0)
           (-30.0 30.0)
  end
  begin
     id 13 
     name thorax
     direction -0.00195047 0.999485 0.0320434   
     length 2.18139   
     axis 0 0 0   XYZ
    dof rx ry rz
    limits (-20.0 45.0)
           (-30.0 30.0)
           (-30.0 30.0)
  end
  begin
     id 14 
     name lowerneck
     direction 0.00782762 0.986241 0.165128   
     length 1.88415   
     axis 0 0 0   XYZ
    dof rx ry rz
    limits (-20.0 45.0)
           (-30.0 30.0)
           (-30.0 30.0)
  end
  begin
     id 15 
     name upperneck
     direction 0.00988667 0.981098 -0.193258   
     length 1.9242   
     axis 0 0 0   XYZ
    dof rx ry rz
    limits (-20.0 45.0)
           (-30.0 30.0)
           (-30.0 30.0)
  end
  begin
     id 16
     name head
     direction 0.00252199 0.996513 -0.0833958  
     length 1.93887  
     axis 0 0 0   XYZ
    dof rx ry rz
    limits (-20.0 45.0)
           (-30.0 30.0)
           (-30.0 30.0)
  end
  begin
     id 17 
     name lclavicle
     direction 0.929492 0.368193 -0.0218667  
     length 3.5955  
     axis 0 0 0   XYZ
    dof ry rz
    limits (-20.0 10.0)
           (0.0 20.0)
  end
  begin
     id 18 
     name lhumerus
     direction 1 -4.48972e-011 1.41911e-027   
     length 5.2795   
     axis 180 -30 -90   XYZ
    dof rx ry rz
    limits (-60.0 90.0)
           (-90.0 90.0)
           (-90.0 90.0)
  end
  begin
     id 19
     name lradius
     direction 1 -4.48963e-011 7.05772e-027   
     length 3.53504   
     axis 180 -30 -90   XYZ
    dof rx
    limits (-10.0 170.0)
  end
  begin
     id 20
     name lwrist
     direction 1 -4.48957e-011 9.54866e-027   
     length 1.76752   
     axis -7.69462e-015 90 90   XYZ
    dof ry
    limits (-180.0 0.0)
 end
  begin
     id 21 
     name lhand
     direction 1 -4.48979e-011 1.90973e-026   
     length 0.667948   
     axis -1.21857e-014 90 90   XYZ
    dof rx rz
    limits (-90.0 90.0)
           (-45.0 45.0)
  end
  begin
     id 22 
     name lfingers
     direction 1 -4.48987e-011 3.81946e-026   
     length 0.538517   
     axis -2.43714e-014 90 90   XYZ
    dof rx
    limits (0.0 90.0)
  end
  begin
     id 23
     name lthumb
     direction 0.707107 -6.34962e-011 0.707107   
     length 0.773206   
     axis -90 45 2.85299e-015   XYZ
    dof rx rz
    limits (-45.0 45.0)
           (-45.0 45.0)
  end
  begin
     id 24 
     name rclavicle
     direction -0.898763 0.414256 -0.143584   
     length 3.5176  
     axis 0 0 0   XYZ 
    dof ry rz
    limits (-10.0 20.0)
           (-20.0 0.0)
  end
  begin
     id 25 
     name rhumerus
     direction -1 -4.48971e-011 1.129e-027  
     length 5.25035   
     axis 180 30 90   XYZ
    dof rx ry rz
    limits (-90.0 60.0)
           (-90.0 90.0)
           (-90.0 90.0)
  end
  begin
     id 26 
     name rradius
     direction -1 -4.48955e-011 6.34664e-027   
     length 3.58884   
     axis 180 30 90   XYZ
    dof rx
    limits (-10.0 170.0)
  end
  begin
     id 27 
     name rwrist
     direction -1 -4.48966e-011 9.54866e-027   
     length 1.79442   
     axis -7.69462e-015 -90 -90   XYZ
    dof ry
    limits (-180.0 0.0)
  end
  begin
     id 28
     name rhand
     direction -1 -4.48973e-011 1.90973e-026   
     length 0.779235   
     axis -1.21857e-014 -90 -90   XYZ
    dof rx rz
    limits (-90.0 90.0)
           (-45.0 45.0)
  end
  begin
     id 29
     name rfingers
     direction -1 -4.48984e-011 3.81946e-026   
     length 0.62824   
     axis -2.43714e-014 -90 -90   XYZ
    dof rx
    limits (0.0 90.0)
  end
  begin
     id 30
     name rthumb
     direction -0.707107 -6.34968e-011 0.707107   
     length 0.90203   
     axis -90 -45 -2.85299e-015   XYZ
    dof rx rz
    limits (-45.0 45.0)
           (-45.0 45.0)
  end
:hierarchy
  begin
    root lhipjoint rhipjoint lowerback
    lhipjoint lfemur
    lfemur ltibia
    ltibia lfoot
    lfoot ltoes
    rhipjoint rfemur
    rfemur rtibia
    rtibia rfoot
    rfoot rtoes
    lowerback upperback
    upperback thorax
    thorax lowerneck lclavicle rclavicle
    lowerneck upperneck
    upperneck head
    lclavicle lhumerus
    lhumerus lradius
    lradius lwrist
    lwrist lhand lthumb
    lhand lfingers
    rclavicle rhumerus
    rhumerus rradius
    rradius rwrist
    rwrist rhand rthumb
    rhand rfingers
  end

#!OML:ASF I:\Random Stuff\random\construction\7_22_03\Session 2\subj1.ASF
:FULLY-SPECIFIED
:DEGREES
296
root -9.30066 17.7969 -5.21879 -369.404 82.2561 -381.736
lowerback 6.49883 2.01767 -5.96597
upperback 4.5329 2.6692 -5.64621
thorax 1.07663 1.39501 -2.6477
lowerneck -21.2356 2.62522 2.79973
upperneck 32.5473 3.64322 -0.209356
head 14.9345 2.07429 0.171104
rclavicle 3.02153e-014 -8.11041e-014
rhumerus 6.66687 51.4653 -64.865
rradius 74.0953
rwrist 22.4208
rhand -21.2386 20.2328
rfingers 7.12502
rthumb 5.14401 -9.68473
lclavicle 3.02153e-014 -8.11041e-014
lhumerus -1.81628 -37.0365 87.3936
lradius 52.3774
lwrist 5.72643
lhand -26.8956 49.6731
lfingers 7.12502
lthumb -0.31926 79.6526
rfemur -12.8482 12.644 12.8887
rtibia 1.39149e-015
rfoot 2.36386 -8.54913
rtoes -26.1081
lfemur -20.9992 -2.08787 -11.9124
ltibia 23.7344
lfoot -11.4734 16.2268
ltoes -29.8253
297
root -9.29567 17.7997 -5.21434 -369.769 82.3708 -382.156
lowerback 6.40957 2.04553 -5.93901
upperback 4.49248 2.71281 -5.67622
thorax 1.08672 1.4177 -2.69346
lowerneck -21.1752 2.56958 2.77156
upperneck 32.5947 3.57393 -0.18468
head 14.9402 2.04802 0.173172
rclavicle 1.11319e-014 1.43125e-014
rhumerus 6.46876 51.4308 -65.0256
rradius 74.1644
rwrist 22.4868
rhand -20.8659 20.125
rfingers 7.12502
rthumb 5.50379 -9.78356
lclavicle 1.11319e-014 1.43125e-014
lhumerus -1.80322 -37.3535 87.5238
lradius 52.0674
lwrist 5.8304
lhand -26.9763 49.6394
lfingers 7.12502
lthumb -0.397167 79.6188
rfemur -12.8465 12.5196 12.9259
rtibia 3.37934e-015
rfoot 2.2859 -8.5798
rtoes -25.73
lfemur -21.0568 -2.19461 -11.8719
ltibia 23.7123
lfoot -11.4546 16.2154
ltoes -29.8573
298
root -9.29243 17.8012 -5.20912 -370.179 82.4986 -382.57
lowerback 6.4607 2.06858 -5.92522
upperback 4.43499 2.73423 -5.71019
thorax 1.00079 1.43099 -2.74119
lowerneck -21.111 2.53391 2.7536
upperneck 32.6063 3.52044 -0.142064
head 14.9285 2.03167 0.183266
rclavicle -2.8625e-014 3.49861e-014
rhumerus 6.21546 51.4104 -65.2138
rradius 74.2814
rwrist 22.6891
rhand -20.6469 19.9974
rfingers 7.12502
rthumb 5.71522 -9.90554
lclavicle -2.8625e-014 3.49861e-014
lhumerus -1.82663 -37.5951 87.6793
lradius 51.7524
lwrist 5.85132
lhand -27.0072 49.9677
lfingers 7.12502
lthumb -0.427077 79.947
rfemur -12.7857 12.3909 12.9783
rtibia -1.98785e-014
rfoot 2.2219 -8.59653
rtoes -25.5452
lfemur -21.0551 -2.27469 -11.8364
ltibia 23.6869
lfoot -11.4542 16.1805
ltoes -29.8359
299
root -9.28764 17.8016 -5.20366 -370.829 82.6257 -383.245
lowerback 6.44906 2.07189 -5.90314
upperback 4.40042 2.73726 -5.71742
thorax 0.972365 1.43343 -2.76133
lowerneck -21.0461 2.5243 2.8325
upperneck 32.5624 3.51637 -0.24843
head 14.8982 2.02523 0.123369
rclavicle -1.35174e-014 -2.06736e-014
rhumerus 6.01212 51.4098 -65.3206
rradius 74.4486
rwrist 23.0588
rhand -20.4859 19.951
rfingers 7.12502
rthumb 5.87073 -9.94762
lclavicle -1.35174e-014 -2.06736e-014
lhumerus -1.83113 -37.7401 87.8207
lradius 51.5024
lwrist 6.00719
lhand -27.0589 50.2887
lfingers 7.12502
lthumb -0.477019 80.2679
rfemur -12.7518 12.257 13.0675
rtibia -1.64991e-014
rfoot 2.20414 -8.60866
rtoes -25.57
lfemur -21.0877 -2.45063 -11.7486
ltibia 23.6588
lfoot -11.397 16.2848
ltoes -30.1977
300
root -9.2803 17.8009 -5.1999 -371.333 82.7706 -383.771
lowerback 6.37837 2.04686 -5.92085
upperback 4.40273 2.70972 -5.69452
thorax 1.01187 1.41795 -2.72287
lowerneck -21.0057 2.53871 2.88179
upperneck 32.5014 3.56802 -0.389712
head 14.8666 2.03237 0.0646864
rclavicle -2.38542e-015 3.18055e-015
rhumerus 5.95101 51.4745 -65.2818
rradius 74.6043
rwrist 23.3823
rhand -20.2153 19.9661
rfingers 7.12502
rthumb 6.13192 -9.92511
lclavicle -2.38542e-015 3.18055e-015
lhumerus -1.76713 -37.7026 87.9769
lradius 51.2105
lwrist 6.1589
lhand -27.1475 50.1528
lfingers 7.12502
lthumb -0.562556 80.1318
rfemur -12.7067 12.105 13.1167
rtibia -2.32578e-014
rfoot 2.15557 -8.63405
rtoes -25.4429
lfemur -21.1203 -2.72149 -11.6836
ltibia 23.6491
lfoot -11.378 16.42
ltoes -30.3251
301
root -9.27228 17.8001 -5.19651 -371.881 82.8852 -384.301
lowerback 6.33232 2.02811 -5.92584
upperback 4.41644 2.69029 -5.6763
thorax 1.05047 1.40711 -2.69771
lowerneck -20.9895 2.57255 2.88065
upperneck 32.4824 3.63756 -0.439952
head 14.8568 2.05439 0.0567299
rclavicle 1.35174e-014 3.33958e-014
rhumerus 5.89686 51.5227 -65.2629
rradius 74.7393
rwrist 23.5715
rhand -19.7932 19.9303
rfingers 7.12502
rthumb 6.5395 -9.94872
lclavicle 1.35174e-014 3.33958e-014
lhumerus -1.70415 -37.5948 88.1151
lradius 50.9222
lwrist 6.19238
lhand -27.1943 49.9888
lfingers 7.12502
lthumb -0.60778 79.9677
rfemur -12.6148 11.9865 13.1759
rtibia -6.55989e-015
rfoot 2.08792 -8.66765
rtoes -25.2999
lfemur -21.0994 -2.8992 -11.6288
ltibia 23.6521
lfoot -11.3922 16.4228
ltoes -30.2725
302
root -9.26529 17.8007 -5.19234 -372.768 82.9703 -385.159
lowerback 6.29664 1.99626 -5.92312
upperback 4.40458 2.64931 -5.65435
thorax 1.05654 1.38575 -2.67268
lowerneck -20.9194 2.62848 2.89526
upperneck 32.4962 3.72581 -0.447821
head 14.8499 2.09401 0.0668173
rclavicle 2.78299e-014 2.38542e-014
rhumerus 5.75476 51.5858 -65.3833
rradius 74.9029
rwrist 23.6527
rhand -19.3475 19.6772
rfingers 7.12502
rthumb 6.96967 -10.1881
lclavicle 2.78299e-014 2.38542e-014
lhumerus -1.71956 -37.4922 88.1835
lradius 50.738
lwrist 6.22186
lhand -27.1236 50.0463
lfingers 7.12502
lthumb -0.539474 80.0254
rfemur -12.5158 11.8931 13.2949
rtibia 2.56432e-014
rfoot 2.04943 -8.68949
rtoes -25.2427
lfemur -21.0629 -3.00436 -11.5353
ltibia 23.659
lfoot -11.4038 16.4522
ltoes -30.6523
303
root -9.25969 17.8007 -5.18789 -373.451 83.0977 -385.82
lowerback 6.27724 1.95678 -5.98731
upperback 4.39099 2.59327 -5.62054
thorax 1.04875 1.35552 -2.59811
lowerneck -20.875 2.67691 2.90104
upperneck 32.5413 3.81361 -0.472088
head 14.8632 2.13006 0.0724189
rclavicle 3.49861e-014 3.97569e-014
rhumerus 5.61665 51.6241 -65.4832
rradius 75.0446
rwrist 23.6296
rhand -19.1099 19.3202
rfingers 7.12502
rthumb 7.19903 -10.5373
lclavicle 3.49861e-014 3.97569e-014
lhumerus -1.68166 -37.4724 88.2174
lradius 50.5487
lwrist 6.28476
lhand -27.1332 49.9812
lfingers 7.12502
lthumb -0.548732 79.9602
rfemur -12.424 11.7607 13.3704
rtibia 2.90226e-014
rfoot 2.01128 -8.71256
rtoes -25.0866
lfemur -21.0591 -3.10269 -11.4889
ltibia 23.6907
lfoot -11.4303 16.4397
ltoes -30.7731
304
root -9.25375 17.7984 -5.1833 -373.84 83.2325 -386.189
lowerback 6.28321 1.96958 -6.00979
upperback 4.4122 2.61166 -5.61345
thorax 1.06652 1.36422 -2.57915
lowerneck -20.943 2.66623 2.83492
upperneck 32.5739 3.81036 -0.436712
head 14.8907 2.12538 0.0994591
rclavicle 2.38542e-015 -4.45278e-014
rhumerus 5.46546 51.4801 -65.512
rradius 75.1506
rwrist 23.6221
rhand -19.0563 19.0804
rfingers 7.12502
rthumb 7.25083 -10.7754
lclavicle 2.38542e-015 -4.45278e-014
lhumerus -1.48032 -37.7434 88.2221
lradius 50.3312
lwrist 6.45603
lhand -27.2097 49.7746
lfingers 7.12502
lthumb -0.622655 79.7535
rfemur -12.341 11.6282 13.4057
rtibia -2.78299e-014
rfoot 1.99934 -8.74491
rtoes -25.2048
lfemur -21.067 -3.11362 -11.4883
ltibia 23.7307
lfoot -11.4696 16.2209
ltoes -30.4569
305
root -9.24634 17.7988 -5.17888 -374.69 83.3242 -387.026
lowerback 6.29059 1.99739 -5.91451
upperback 4.41725 2.65355 -5.62748
thorax 1.07207 1.38761 -2.64913
lowerneck -20.9783 2.62375 2.77721
upperneck 32.5971 3.7411 -0.354639
head 14.9042 2.10135 0.13135
rclavicle -1.74931e-014 -6.20208e-014
rhumerus 5.18345 51.293 -65.6652
rradius 75.2549
rwrist 23.7207
rhand -19.0061 19.0238
rfingers 7.12502
rthumb 7.29923 -10.8303
lclavicle -1.74931e-014 -6.20208e-014
lhumerus -1.32199 -38.1729 88.188
lradius 50.1846
lwrist 6.66216
lhand -27.2042 49.8706
lfingers 7.12502
lthumb -0.61735 79.8495
rfemur -12.2637 11.5256 13.51
rtibia -3.02153e-014
rfoot 1.96484 -8.77555
rtoes -25.2668
lfemur -21.0632 -3.08705 -11.4196
ltibia 23.7495
lfoot -11.5058 16.0486
ltoes -30.4156
306
root -9.2383 17.8016 -5.17432 -375.802 83.4239 -388.123
lowerback 6.29012 1.98334 -5.82901
upperback 4.40211 2.63728 -5.63247
thorax 1.05981 1.38149 -2.70106
lowerneck -20.9593 2.60842 2.78228
upperneck 32.6478 3.71195 -0.320879
head 14.922 2.09637 0.139652
rclavicle 2.8625e-014 -3.18055e-015
rhumerus 4.92269 51.2244 -65.8399
rradius 75.382
rwrist 23.9339
rhand -18.9498 19.0531
rfingers 7.12502
rthumb 7.35364 -10.7991
lclavicle 2.8625e-014 -3.18055e-015
lhumerus -1.24442 -38.454 88.1382
lradius 50.0538
lwrist 6.72746
lhand -27.1396 50.172
lfingers 7.12502
lthumb -0.554945 80.1511
rfemur -12.1622 11.407 13.638
rtibia 2.40529e-014
rfoot 1.87238 -8.80276
rtoes -24.9928
lfemur -21.0565 -3.15057 -11.3234
ltibia 23.7632
lfoot -11.509 16.0343
ltoes -30.6852
307
root -9.23058 17.8026 -5.16873 -376.607 83.5265 -388.885
lowerback 6.29175 1.97053 -5.81986
upperback 4.38142 2.61929 -5.64887
thorax 1.0384 1.37357 -2.7227
lowerneck -20.8799 2.61505 2.82028
upperneck 32.7125 3.69205 -0.240901
head 14.9326 2.10761 0.162564
rclavicle 2.94201e-014 3.18055e-015
rhumerus 4.69438 51.1896 -66.0169
rradius 75.4861
rwrist 24.2173
rhand -19.0057 19.0284
rfingers 7.12502
rthumb 7.29969 -10.8256
lclavicle 2.94201e-014 3.18055e-015
lhumerus -1.17688 -38.6521 88.0936
lradius 49.8816
lwrist 6.77739
lhand -27.0407 50.3392
lfingers 7.12502
lthumb -0.459381 80.3184
rfemur -12.0274 11.2991 13.7344
rtibia 3.4191e-014
rfoot 1.80761 -8.81827
rtoes -24.8696
lfemur -21.0157 -3.25046 -11.2659
ltibia 23.7816
lfoot -11.479 16.0424
ltoes -31.0421
308
root -9.22279 17.8016 -5.1635 -377.269 83.5956 -389.506
lowerback 6.25823 1.98075 -5.82979
upperback 4.34224 2.63256 -5.67535
thorax 1.01723 1.38091 -2.74493
lowerneck -20.7108 2.62994 2.90858
upperneck 32.7747 3.67631 -0.171406
head 14.9236 2.12727 0.171944
rclavicle 1.51076e-014 -1.59028e-014
rhumerus 4.39241 51.143 -66.2605
rradius 75.5629
rwrist 24.3861
rhand -19.2448 18.7006
rfingers 7.12502
rthumb 7.06882 -11.1614
lclavicle 1.51076e-014 -1.59028e-014
lhumerus -1.17347 -38.8461 88.0739
lradius 49.744
lwrist 6.88611
lhand -26.846 50.4138
lfingers 7.12502
lthumb -0.271304 80.3934
rfemur -11.9122 11.227 13.8225
rtibia 3.85642e-014
rfoot 1.78714 -8.81776
rtoes -25.0815
lfemur -20.9634 -3.29444 -11.2178
ltibia 23.7912
lfoot -11.4357 16.0216
ltoes -31.3501
309
root -9.21473 17.8005 -5.15928 -377.776 83.6736 -390.007
lowerback 6.17882 1.97277 -5.8513
upperback 4.31829 2.62639 -5.68285
thorax 1.03588 1.37706 -2.73763
lowerneck -20.5684 2.6539 2.98347
upperneck 32.7999 3.71896 -0.226865
head 14.9073 2.15018 0.142494
rclavicle 6.36111e-015 -5.40694e-014
rhumerus 4.1376 51.113 -66.4043
rradius 75.7213
rwrist 24.3312
rhand -19.37 18.4271
rfingers 7.12502
rthumb 6.94803 -11.4388
lclavicle 6.36111e-015 -5.40694e-014
lhumerus -1.16094 -38.9334 88.06
lradius 49.6733
lwrist 6.98667
lhand -26.5618 50.393
lfingers 7.12502
lthumb 0.00316073 80.3728
rfemur -11.8518 11.1427 13.8724
rtibia 1.86858e-014
rfoot 1.76988 -8.81739
rtoes -25.3225
lfemur -20.9567 -3.31206 -11.1942
ltibia 23.7981
lfoot -11.4093 15.9761
ltoes -31.259
310
root -9.20712 17.8006 -5.15613 -378.116 83.7435 -390.366
lowerback 6.09093 1.93549 -5.89501
upperback 4.31326 2.58254 -5.67144
thorax 1.07699 1.35309 -2.69553
lowerneck -20.5236 2.6982 3.04476
upperneck 32.8122 3.81251 -0.351656
head 14.9096 2.18024 0.0973688
rclavicle -2.46493e-014 3.65764e-014
rhumerus 4.03833 51.136 -66.4227
rradius 75.9279
rwrist 24.1472
rhand -19.2146 18.7151
rfingers 7.12502
rthumb 7.09802 -11.1459
lclavicle -2.46493e-014 3.65764e-014
lhumerus -1.10974 -38.8421 88.0271
lradius 49.6484
lwrist 7.0357
lhand -26.2802 50.2052
lfingers 7.12502
lthumb 0.275081 80.1847
rfemur -11.8312 11.0659 13.8955
rtibia -1.70955e-014
rfoot 1.73051 -8.82086
rtoes -25.2983
lfemur -20.9756 -3.33754 -11.1805
ltibia 23.8034
lfoot -11.4071 15.9464
ltoes -31.0858
